<svg width="109" height="20" viewBox="0 0 109 20" fill="none" xmlns="http://www.w3.org/2000/svg">
<path d="M86.7266 1.30762L86.2734 6.49219L89.9229 1.23145L96.0137 2.74219L90.4512 9.36133L95.5605 18.0186L89.7217 19.0508L85.8965 13.8662L85.6943 18.7988L80.46 19L80.8623 0.980469L86.7266 1.30762ZM12.4199 3.19531C12.378 3.96687 12.3239 4.74684 12.2568 5.53516L6.9209 5.8125V7.39746H11.5518L11.2998 11.2988L6.89551 11.4248L6.9209 18.874L0.553711 19L0.956055 0.854492H12.5586C12.5083 1.64303 12.4619 2.42355 12.4199 3.19531ZM27.4072 17.918L21.166 18.7236L20.4111 15.8789H17.542L16.9121 18.7236L10.4951 18.0938L15.5029 1.33301L22.5 0.980469L27.4072 17.918ZM61.8232 18.4209L56.5127 18.6982L56.0098 1.63477L62.7041 1.28223L61.8232 18.4209ZM37.8516 0.62793C38.5646 0.62793 39.1897 0.745574 39.7266 0.980469C40.2633 1.21531 40.7245 1.53398 41.1104 1.93652C41.4963 2.3392 41.82 2.81741 42.0801 3.37109C42.3401 3.91632 42.5496 4.49941 42.709 5.12012C42.8684 5.74081 42.9903 6.39092 43.0742 7.07031C43.1581 7.74133 43.2121 8.40435 43.2373 9.05859C43.2709 9.71292 43.2881 10.3466 43.2881 10.959V12.6328C43.2881 13.5807 43.2752 14.5201 43.25 15.4512C43.2332 16.374 43.2041 17.3055 43.1621 18.2451L35.9141 18.1191C36.1657 16.6343 36.3838 15.1532 36.5684 13.6768C36.7529 12.192 36.8447 10.6945 36.8447 9.18457C36.8447 9.0755 36.8404 8.8994 36.832 8.65625C36.8236 8.41297 36.8074 8.1399 36.7822 7.83789C36.7571 7.52763 36.7193 7.21317 36.6689 6.89453C36.627 6.56737 36.5644 6.26942 36.4805 6.00098C36.405 5.73253 36.3079 5.51446 36.1904 5.34668C36.0814 5.17065 35.9474 5.0821 35.7881 5.08203C35.5029 5.08203 35.259 5.1662 35.0576 5.33398C34.8648 5.5017 34.7016 5.72 34.5674 5.98828C34.4416 6.24827 34.3411 6.54208 34.2656 6.86914C34.1901 7.19623 34.1308 7.5235 34.0889 7.85059C34.0553 8.17776 34.0305 8.48861 34.0137 8.78223C34.0053 9.06717 34.001 9.30187 34.001 9.48633C33.959 10.9711 33.9256 12.448 33.9004 13.916C33.8752 15.3757 33.8418 16.8524 33.7998 18.3457L27.3818 18.6221C27.5496 15.661 27.7094 12.7166 27.8604 9.78906C28.0197 6.86128 28.145 3.91641 28.2373 0.955078L34.1768 0.65332L34.127 2.66602C34.3617 2.38095 34.6135 2.11288 34.8818 1.86133C35.1586 1.60971 35.4524 1.39587 35.7627 1.21973C36.0731 1.03517 36.4002 0.891685 36.7441 0.791016C37.0965 0.681966 37.4657 0.627936 37.8516 0.62793ZM73.916 0.62793C74.629 0.62793 75.2542 0.745624 75.791 0.980469C76.3279 1.21536 76.7899 1.53385 77.1758 1.93652C77.5616 2.33918 77.8845 2.81746 78.1445 3.37109C78.4046 3.91633 78.6141 4.49939 78.7734 5.12012C78.9328 5.7408 79.0548 6.39093 79.1387 7.07031C79.2225 7.74133 79.2766 8.40435 79.3018 9.05859C79.3353 9.71292 79.3525 10.3466 79.3525 10.959V12.6328C79.3525 13.5807 79.3396 14.5201 79.3145 15.4512C79.2977 16.374 79.2685 17.3055 79.2266 18.2451L71.9785 18.1191C72.2302 16.6343 72.4483 15.1532 72.6328 13.6768C72.8173 12.192 72.9102 10.6945 72.9102 9.18457C72.9102 9.0755 72.9058 8.89939 72.8975 8.65625C72.8891 8.41297 72.8718 8.1399 72.8467 7.83789C72.8215 7.52763 72.7837 7.21318 72.7334 6.89453C72.6915 6.56736 72.6288 6.26943 72.5449 6.00098C72.4694 5.73255 72.3723 5.51445 72.2549 5.34668C72.1459 5.17067 72.0119 5.08203 71.8525 5.08203C71.5675 5.08205 71.3243 5.16635 71.123 5.33398C70.9301 5.50175 70.7661 5.71988 70.6318 5.98828C70.506 6.24829 70.4056 6.54205 70.3301 6.86914C70.2546 7.1962 70.1962 7.52353 70.1543 7.85059C70.1207 8.17776 70.0949 8.48861 70.0781 8.78223C70.0697 9.06716 70.0654 9.30187 70.0654 9.48633C70.0235 10.9711 69.99 12.448 69.9648 13.916C69.9397 15.3757 69.9062 16.8524 69.8643 18.3457L63.4463 18.6221C63.6141 15.661 63.7738 12.7166 63.9248 9.78906C64.0842 6.86127 64.2105 3.91642 64.3027 0.955078L70.2422 0.65332L70.1914 2.66602C70.4262 2.38095 70.678 2.11288 70.9463 1.86133C71.223 1.60977 71.5169 1.39585 71.8271 1.21973C72.1375 1.03521 72.4647 0.891681 72.8086 0.791016C73.1608 0.681991 73.5302 0.627963 73.916 0.62793ZM51.3662 0.779297C51.1733 2.61621 50.9886 4.45312 50.8125 6.29004C50.6363 8.1188 50.511 9.96483 50.4355 11.8271C50.8297 11.8439 51.2197 11.8525 51.6055 11.8525H52.7754C53.2452 11.8525 53.7071 11.8482 54.1602 11.8398C54.613 11.8315 55.0743 11.8272 55.5439 11.8271L55.0156 17.4141L44.4199 18.2451C44.4703 15.3173 44.5253 12.406 44.584 9.51172C44.6511 6.61769 44.731 3.70688 44.8232 0.779297H51.3662ZM103.551 4.52832L106.244 2.51562L108.106 6.24023L105.086 7.42285L107.477 10.3926L104.205 13.0352L101.84 9.43652L99.5488 13.2363L96.2773 10.7197L98.5674 7.92676L95.3965 6.69336L96.9316 3.04395L99.5996 4.37793L99.5244 0.62793L103.702 0.476562L103.551 4.52832ZM18.0703 12.0283H19.958L19.001 7.64941L18.0703 12.0283Z" fill="black"/>
</svg>
