<svg width="698" height="47" viewBox="0 0 698 47" fill="none" xmlns="http://www.w3.org/2000/svg">
<path d="M20.3338 12.4221C20.199 11.0632 19.6207 10.0076 18.5987 9.25513C17.5767 8.50268 16.1898 8.12646 14.4378 8.12646C13.2474 8.12646 12.2422 8.29492 11.4224 8.63184C10.6026 8.95752 9.97369 9.41235 9.53571 9.99634C9.10895 10.5803 8.89557 11.2429 8.89557 11.9841C8.87311 12.6018 9.00226 13.1409 9.28302 13.6013C9.57501 14.0618 9.97369 14.4604 10.4791 14.7974C10.9844 15.123 11.5684 15.4094 12.231 15.6565C12.8936 15.8923 13.6011 16.0945 14.3536 16.2629L17.4532 17.0041C18.9581 17.3411 20.3394 17.7903 21.5972 18.3518C22.855 18.9133 23.9444 19.604 24.8653 20.4238C25.7862 21.2437 26.4993 22.2095 27.0047 23.3213C27.5213 24.4331 27.7852 25.7078 27.7964 27.1453C27.7852 29.2566 27.2462 31.0872 26.1793 32.637C25.1236 34.1755 23.5963 35.3716 21.5972 36.2251C19.6094 37.0674 17.2117 37.4885 14.4041 37.4885C11.619 37.4885 9.19318 37.0618 7.12677 36.2083C5.07159 35.3547 3.46564 34.0913 2.3089 32.418C1.16339 30.7334 0.562561 28.6501 0.506409 26.1682H7.56476C7.64337 27.325 7.97467 28.2908 8.55865 29.0657C9.15387 29.8293 9.94562 30.4077 10.9339 30.8008C11.9334 31.1826 13.0621 31.3735 14.3199 31.3735C15.5552 31.3735 16.6277 31.1938 17.5374 30.8345C18.4583 30.4751 19.1714 29.9753 19.6768 29.3352C20.1822 28.6951 20.4349 27.9595 20.4349 27.1284C20.4349 26.3535 20.2047 25.7021 19.7442 25.1743C19.295 24.6465 18.6324 24.1973 17.7564 23.8267C16.8917 23.4561 15.8304 23.1191 14.5726 22.8159L10.816 21.8726C7.90729 21.165 5.61066 20.0588 3.92609 18.554C2.24152 17.0491 1.40485 15.022 1.41608 12.4727C1.40485 10.3838 1.96075 8.55884 3.0838 6.9978C4.21808 5.43677 5.7735 4.21826 7.75006 3.34228C9.72662 2.46631 11.9727 2.02832 14.4883 2.02832C17.0489 2.02832 19.2838 2.46631 21.1929 3.34228C23.1133 4.21826 24.607 5.43677 25.6739 6.9978C26.7408 8.55884 27.2911 10.3669 27.3248 12.4221H20.3338ZM39.7443 22.041V37H32.568V2.5H39.5421V15.6902H39.8453C40.4293 14.1628 41.3727 12.9668 42.6754 12.102C43.9781 11.2261 45.6122 10.7881 47.5775 10.7881C49.3744 10.7881 50.941 11.1812 52.2775 11.9673C53.6251 12.7422 54.6696 13.8596 55.4108 15.3196C56.1632 16.7683 56.5338 18.5034 56.5226 20.5249V37H49.3463V21.8052C49.3575 20.2104 48.9532 18.9695 48.1334 18.0823C47.3248 17.1951 46.1906 16.7515 44.7306 16.7515C43.7535 16.7515 42.8888 16.9592 42.1364 17.3748C41.3951 17.7903 40.8112 18.3967 40.3844 19.1941C39.9689 19.9802 39.7555 20.9292 39.7443 22.041ZM73.861 37.5054C71.2443 37.5054 68.9814 36.9495 67.0722 35.8376C65.1743 34.7146 63.7087 33.1536 62.6755 31.1545C61.6423 29.1443 61.1257 26.814 61.1257 24.1636C61.1257 21.4907 61.6423 19.1548 62.6755 17.1558C63.7087 15.1455 65.1743 13.5845 67.0722 12.4727C68.9814 11.3496 71.2443 10.7881 73.861 10.7881C76.4777 10.7881 78.735 11.3496 80.633 12.4727C82.5422 13.5845 84.0134 15.1455 85.0466 17.1558C86.0798 19.1548 86.5964 21.4907 86.5964 24.1636C86.5964 26.814 86.0798 29.1443 85.0466 31.1545C84.0134 33.1536 82.5422 34.7146 80.633 35.8376C78.735 36.9495 76.4777 37.5054 73.861 37.5054ZM73.8947 31.9463C75.0851 31.9463 76.079 31.6094 76.8764 30.9355C77.6738 30.2505 78.2746 29.3184 78.6789 28.1392C79.0944 26.96 79.3022 25.6179 79.3022 24.113C79.3022 22.6082 79.0944 21.2661 78.6789 20.0869C78.2746 18.9077 77.6738 17.9756 76.8764 17.2905C76.079 16.6055 75.0851 16.2629 73.8947 16.2629C72.6931 16.2629 71.6823 16.6055 70.8625 17.2905C70.0539 17.9756 69.4418 18.9077 69.0263 20.0869C68.622 21.2661 68.4199 22.6082 68.4199 24.113C68.4199 25.6179 68.622 26.96 69.0263 28.1392C69.4418 29.3184 70.0539 30.2505 70.8625 30.9355C71.6823 31.6094 72.6931 31.9463 73.8947 31.9463ZM95.7183 37L88.6768 11.125H95.9373L99.9466 28.5098H100.182L104.36 11.125H111.486L115.731 28.4087H115.95L119.892 11.125H127.136L120.111 37H112.513L108.066 20.7271H107.746L103.299 37H95.7183ZM140.056 2.5H148.226L156.093 17.3579H156.43L164.297 2.5H172.467L159.884 24.8037V37H152.64V24.8037L140.056 2.5ZM182.587 37.5054C179.971 37.5054 177.708 36.9495 175.799 35.8376C173.901 34.7146 172.435 33.1536 171.402 31.1545C170.369 29.1443 169.852 26.814 169.852 24.1636C169.852 21.4907 170.369 19.1548 171.402 17.1558C172.435 15.1455 173.901 13.5845 175.799 12.4727C177.708 11.3496 179.971 10.7881 182.587 10.7881C185.204 10.7881 187.461 11.3496 189.359 12.4727C191.269 13.5845 192.74 15.1455 193.773 17.1558C194.806 19.1548 195.323 21.4907 195.323 24.1636C195.323 26.814 194.806 29.1443 193.773 31.1545C192.74 33.1536 191.269 34.7146 189.359 35.8376C187.461 36.9495 185.204 37.5054 182.587 37.5054ZM182.621 31.9463C183.812 31.9463 184.805 31.6094 185.603 30.9355C186.4 30.2505 187.001 29.3184 187.405 28.1392C187.821 26.96 188.029 25.6179 188.029 24.113C188.029 22.6082 187.821 21.2661 187.405 20.0869C187.001 18.9077 186.4 17.9756 185.603 17.2905C184.805 16.6055 183.812 16.2629 182.621 16.2629C181.419 16.2629 180.409 16.6055 179.589 17.2905C178.78 17.9756 178.168 18.9077 177.753 20.0869C177.348 21.2661 177.146 22.6082 177.146 24.113C177.146 25.6179 177.348 26.96 177.753 28.1392C178.168 29.3184 178.78 30.2505 179.589 30.9355C180.409 31.6094 181.419 31.9463 182.621 31.9463ZM216.582 25.9829V11.125H223.758V37H216.868V32.3H216.599C216.015 33.8162 215.043 35.0347 213.685 35.9556C212.337 36.8765 210.692 37.3369 208.749 37.3369C207.019 37.3369 205.498 36.9438 204.184 36.1577C202.87 35.3716 201.842 34.2542 201.101 32.8054C200.371 31.3567 200 29.6216 199.989 27.6001V11.125H207.165V26.3198C207.177 27.8472 207.586 29.0544 208.395 29.9416C209.204 30.8289 210.287 31.2725 211.646 31.2725C212.511 31.2725 213.32 31.0759 214.072 30.6829C214.824 30.2786 215.431 29.6833 215.891 28.8972C216.363 28.1111 216.593 27.1396 216.582 25.9829ZM229.498 37V11.125H236.456V15.6396H236.725C237.197 14.0337 237.989 12.8208 239.101 12.001C240.212 11.1699 241.493 10.7544 242.941 10.7544C243.301 10.7544 243.688 10.7769 244.104 10.8218C244.519 10.8667 244.884 10.9285 245.199 11.0071V17.3748C244.862 17.2737 244.396 17.1838 243.8 17.1052C243.205 17.0266 242.661 16.9873 242.166 16.9873C241.111 16.9873 240.167 17.2175 239.336 17.678C238.517 18.1272 237.865 18.7561 237.382 19.5647C236.911 20.3733 236.675 21.3054 236.675 22.3611V37H229.498ZM291.727 19.75C291.727 23.5122 291.013 26.7129 289.587 29.3521C288.172 31.9912 286.24 34.0071 283.792 35.3997C281.355 36.781 278.615 37.4717 275.571 37.4717C272.506 37.4717 269.754 36.7754 267.317 35.3828C264.88 33.9902 262.954 31.9744 261.539 29.3352C260.124 26.696 259.416 23.501 259.416 19.75C259.416 15.9878 260.124 12.7871 261.539 10.1479C262.954 7.50879 264.88 5.49853 267.317 4.11719C269.754 2.72461 272.506 2.02832 275.571 2.02832C278.615 2.02832 281.355 2.72461 283.792 4.11719C286.24 5.49853 288.172 7.50879 289.587 10.1479C291.013 12.7871 291.727 15.9878 291.727 19.75ZM284.331 19.75C284.331 17.313 283.966 15.2578 283.236 13.5845C282.518 11.9111 281.501 10.6421 280.187 9.77734C278.873 8.9126 277.335 8.48023 275.571 8.48023C273.808 8.48023 272.27 8.9126 270.956 9.77734C269.642 10.6421 268.62 11.9111 267.89 13.5845C267.171 15.2578 266.812 17.313 266.812 19.75C266.812 22.187 267.171 24.2422 267.89 25.9155C268.62 27.5889 269.642 28.8579 270.956 29.7227C272.27 30.5874 273.808 31.0198 275.571 31.0198C277.335 31.0198 278.873 30.5874 280.187 29.7227C281.501 28.8579 282.518 27.5889 283.236 25.9155C283.966 24.2422 284.331 22.187 284.331 19.75ZM297.13 37V2.5H304.306V15.4712H304.525C304.839 14.7749 305.294 14.0674 305.89 13.3486C306.496 12.6187 307.282 12.0122 308.248 11.5293C309.225 11.0352 310.438 10.7881 311.887 10.7881C313.773 10.7881 315.514 11.2822 317.109 12.2705C318.703 13.2476 319.978 14.7244 320.933 16.7009C321.887 18.6663 322.365 21.1313 322.365 24.0962C322.365 26.9824 321.899 29.4194 320.966 31.4072C320.046 33.3838 318.788 34.8831 317.193 35.905C315.609 36.9158 313.835 37.4211 311.87 37.4211C310.477 37.4211 309.292 37.1909 308.315 36.7305C307.349 36.27 306.558 35.6917 305.94 34.9954C305.322 34.2878 304.851 33.5747 304.525 32.856H304.205V37H297.13ZM304.154 24.0625C304.154 25.6011 304.368 26.9431 304.795 28.0886C305.221 29.2341 305.839 30.127 306.648 30.7671C307.456 31.396 308.439 31.7104 309.596 31.7104C310.764 31.7104 311.752 31.3904 312.56 30.7502C313.369 30.0989 313.981 29.2004 314.397 28.0549C314.823 26.8982 315.037 25.5674 315.037 24.0625C315.037 22.5688 314.829 21.2549 314.413 20.1206C313.998 18.9863 313.386 18.0991 312.577 17.459C311.769 16.8188 310.775 16.4988 309.596 16.4988C308.428 16.4988 307.439 16.8076 306.631 17.4253C305.833 18.043 305.221 18.9189 304.795 20.0532C304.368 21.1875 304.154 22.5239 304.154 24.0625ZM327.153 11.125H334.329V38.2803C334.329 40.2793 333.936 41.8965 333.15 43.1318C332.364 44.3672 331.235 45.2712 329.764 45.844C328.304 46.4167 326.558 46.7031 324.525 46.7031C324.278 46.7031 324.042 46.6975 323.818 46.6863C323.582 46.6863 323.335 46.6807 323.076 46.6694V41.0598C323.267 41.071 323.436 41.0767 323.582 41.0767C323.716 41.0879 323.862 41.0935 324.02 41.0935C325.176 41.0935 325.985 40.8464 326.445 40.3523C326.917 39.8694 327.153 39.1394 327.153 38.1624V11.125ZM330.724 7.78955C329.669 7.78955 328.759 7.43579 327.995 6.72827C327.232 6.00952 326.85 5.15039 326.85 4.15088C326.85 3.1626 327.232 2.3147 327.995 1.60718C328.759 0.888427 329.669 0.529051 330.724 0.529051C331.802 0.529051 332.718 0.888427 333.47 1.60718C334.234 2.3147 334.616 3.1626 334.616 4.15088C334.616 5.15039 334.234 6.00952 333.47 6.72827C332.718 7.43579 331.802 7.78955 330.724 7.78955ZM351.87 37.5054C349.208 37.5054 346.917 36.9663 344.997 35.8882C343.088 34.7988 341.616 33.2603 340.583 31.2725C339.55 29.2734 339.033 26.9094 339.033 24.1804C339.033 21.5188 339.55 19.1829 340.583 17.1726C341.616 15.1624 343.071 13.5957 344.946 12.4727C346.833 11.3496 349.045 10.7881 351.583 10.7881C353.291 10.7881 354.88 11.0632 356.351 11.6135C357.833 12.1526 359.125 12.9668 360.225 14.0562C361.337 15.1455 362.202 16.5156 362.82 18.1665C363.437 19.8062 363.746 21.7266 363.746 23.9277V25.8987H341.897V21.4514H356.991C356.991 20.4182 356.766 19.5029 356.317 18.7056C355.868 17.9082 355.245 17.2849 354.447 16.8357C353.661 16.3752 352.746 16.145 351.701 16.145C350.612 16.145 349.646 16.3977 348.804 16.9031C347.973 17.3972 347.322 18.0654 346.85 18.9077C346.378 19.7388 346.137 20.6653 346.125 21.6873V25.9155C346.125 27.1958 346.361 28.302 346.833 29.2341C347.316 30.1663 347.995 30.885 348.871 31.3904C349.747 31.8958 350.786 32.1484 351.988 32.1484C352.785 32.1484 353.515 32.0361 354.178 31.8115C354.84 31.5869 355.407 31.25 355.879 30.8008C356.351 30.3516 356.71 29.8013 356.957 29.1499L363.594 29.5879C363.258 31.1826 362.567 32.5752 361.522 33.7656C360.489 34.9448 359.153 35.8657 357.513 36.5283C355.885 37.1797 354.004 37.5054 351.87 37.5054ZM374.932 29.5542L374.948 20.946H375.993L384.281 11.125H392.519L381.384 24.1299H379.682L374.932 29.5542ZM368.429 37V2.5H375.605V37H368.429ZM384.601 37L376.987 25.7302L381.771 20.6597L393.007 37H384.601ZM409.802 11.125V16.5156H394.22V11.125H409.802ZM397.758 4.92578H404.934V29.0488C404.934 29.7114 405.035 30.228 405.237 30.5986C405.439 30.958 405.72 31.2107 406.079 31.3567C406.45 31.5027 406.877 31.5757 407.36 31.5757C407.697 31.5757 408.033 31.5476 408.37 31.4915C408.707 31.4241 408.966 31.3735 409.145 31.3398L410.274 36.6799C409.915 36.7922 409.409 36.9214 408.758 37.0674C408.106 37.2246 407.315 37.3201 406.383 37.3538C404.653 37.4211 403.137 37.1909 401.834 36.6631C400.543 36.1353 399.538 35.3154 398.819 34.2036C398.1 33.0918 397.746 31.688 397.758 29.9922V4.92578ZM456.031 14.5784H448.653C448.518 13.6238 448.243 12.7759 447.827 12.0347C447.412 11.2822 446.878 10.6421 446.227 10.1143C445.576 9.58642 444.823 9.18213 443.97 8.90137C443.127 8.62061 442.212 8.48023 441.224 8.48023C439.438 8.48023 437.883 8.92383 436.557 9.81103C435.232 10.687 434.205 11.9673 433.475 13.6519C432.745 15.3252 432.38 17.3579 432.38 19.75C432.38 22.2095 432.745 24.2759 433.475 25.9492C434.216 27.6226 435.249 28.886 436.574 29.7395C437.899 30.593 439.432 31.0198 441.173 31.0198C442.15 31.0198 443.054 30.8906 443.885 30.6323C444.728 30.374 445.474 29.9978 446.126 29.5037C446.777 28.9983 447.316 28.3862 447.743 27.6675C448.181 26.9487 448.484 26.1289 448.653 25.208L456.031 25.2417C455.84 26.8252 455.363 28.3525 454.599 29.8237C453.847 31.2837 452.83 32.592 451.55 33.7488C450.281 34.8943 448.765 35.804 447.002 36.4778C445.25 37.1404 443.268 37.4717 441.055 37.4717C437.978 37.4717 435.227 36.7754 432.801 35.3828C430.386 33.9902 428.477 31.9744 427.073 29.3352C425.681 26.696 424.984 23.501 424.984 19.75C424.984 15.9878 425.692 12.7871 427.107 10.1479C428.522 7.50879 430.442 5.49853 432.868 4.11719C435.294 2.72461 438.023 2.02832 441.055 2.02832C443.054 2.02832 444.907 2.30908 446.614 2.8706C448.333 3.43213 449.854 4.25195 451.18 5.33008C452.505 6.39697 453.583 7.70532 454.414 9.25513C455.256 10.8049 455.795 12.5793 456.031 14.5784ZM472.818 37.5054C470.201 37.5054 467.938 36.9495 466.029 35.8376C464.131 34.7146 462.665 33.1536 461.632 31.1545C460.599 29.1443 460.082 26.814 460.082 24.1636C460.082 21.4907 460.599 19.1548 461.632 17.1558C462.665 15.1455 464.131 13.5845 466.029 12.4727C467.938 11.3496 470.201 10.7881 472.818 10.7881C475.435 10.7881 477.692 11.3496 479.59 12.4727C481.499 13.5845 482.97 15.1455 484.003 17.1558C485.037 19.1548 485.553 21.4907 485.553 24.1636C485.553 26.814 485.037 29.1443 484.003 31.1545C482.97 33.1536 481.499 34.7146 479.59 35.8376C477.692 36.9495 475.435 37.5054 472.818 37.5054ZM472.852 31.9463C474.042 31.9463 475.036 31.6094 475.833 30.9355C476.631 30.2505 477.231 29.3184 477.636 28.1392C478.051 26.96 478.259 25.6179 478.259 24.113C478.259 22.6082 478.051 21.2661 477.636 20.0869C477.231 18.9077 476.631 17.9756 475.833 17.2905C475.036 16.6055 474.042 16.2629 472.852 16.2629C471.65 16.2629 470.639 16.6055 469.819 17.2905C469.011 17.9756 468.399 18.9077 467.983 20.0869C467.579 21.2661 467.377 22.6082 467.377 24.113C467.377 25.6179 467.579 26.96 467.983 28.1392C468.399 29.3184 469.011 30.2505 469.819 30.9355C470.639 31.6094 471.65 31.9463 472.852 31.9463ZM497.396 2.5V37H490.219V2.5H497.396ZM510.321 2.5V37H503.144V2.5H510.321ZM527.861 37.5054C525.2 37.5054 522.909 36.9663 520.988 35.8882C519.079 34.7988 517.608 33.2603 516.575 31.2725C515.541 29.2734 515.025 26.9094 515.025 24.1804C515.025 21.5188 515.541 19.1829 516.575 17.1726C517.608 15.1624 519.062 13.5957 520.938 12.4727C522.824 11.3496 525.037 10.7881 527.575 10.7881C529.282 10.7881 530.871 11.0632 532.342 11.6135C533.825 12.1526 535.116 12.9668 536.217 14.0562C537.328 15.1455 538.193 16.5156 538.811 18.1665C539.429 19.8062 539.737 21.7266 539.737 23.9277V25.8987H517.888V21.4514H532.982C532.982 20.4182 532.758 19.5029 532.308 18.7056C531.859 17.9082 531.236 17.2849 530.439 16.8357C529.652 16.3752 528.737 16.145 527.693 16.145C526.603 16.145 525.638 16.3977 524.795 16.9031C523.964 17.3972 523.313 18.0654 522.841 18.9077C522.369 19.7388 522.128 20.6653 522.117 21.6873V25.9155C522.117 27.1958 522.353 28.302 522.824 29.2341C523.307 30.1663 523.987 30.885 524.863 31.3904C525.739 31.8958 526.777 32.1484 527.979 32.1484C528.776 32.1484 529.506 32.0361 530.169 31.8115C530.832 31.5869 531.399 31.25 531.87 30.8008C532.342 30.3516 532.701 29.8013 532.949 29.1499L539.586 29.5879C539.249 31.1826 538.558 32.5752 537.514 33.7656C536.481 34.9448 535.144 35.8657 533.504 36.5283C531.876 37.1797 529.995 37.5054 527.861 37.5054ZM556.111 37.5054C553.461 37.5054 551.181 36.9438 549.272 35.8208C547.374 34.6865 545.914 33.1143 544.892 31.104C543.881 29.0937 543.376 26.7803 543.376 24.1636C543.376 21.5132 543.887 19.1885 544.909 17.1895C545.942 15.1792 547.408 13.6125 549.306 12.4895C551.204 11.3552 553.461 10.7881 556.078 10.7881C558.335 10.7881 560.312 11.198 562.007 12.0178C563.703 12.8376 565.045 13.9888 566.034 15.4712C567.022 16.9536 567.566 18.6943 567.668 20.6934H560.896C560.705 19.4019 560.199 18.363 559.379 17.5769C558.571 16.7795 557.51 16.3809 556.196 16.3809C555.084 16.3809 554.112 16.6841 553.281 17.2905C552.461 17.8857 551.821 18.7561 551.361 19.9016C550.9 21.0471 550.67 22.4341 550.67 24.0625C550.67 25.7134 550.895 27.1172 551.344 28.2739C551.805 29.4307 552.45 30.3123 553.281 30.9187C554.112 31.5251 555.084 31.8284 556.196 31.8284C557.015 31.8284 557.751 31.6599 558.402 31.323C559.065 30.9861 559.61 30.4976 560.036 29.8574C560.474 29.2061 560.761 28.4255 560.896 27.5159H567.668C567.555 29.4924 567.016 31.2332 566.05 32.738C565.096 34.2317 563.776 35.3997 562.092 36.2419C560.407 37.0842 558.414 37.5054 556.111 37.5054ZM586.025 11.125V16.5156H570.443V11.125H586.025ZM573.98 4.92578H581.157V29.0488C581.157 29.7114 581.258 30.228 581.46 30.5986C581.662 30.958 581.943 31.2107 582.302 31.3567C582.673 31.5027 583.1 31.5757 583.583 31.5757C583.919 31.5757 584.256 31.5476 584.593 31.4915C584.93 31.4241 585.188 31.3735 585.368 31.3398L586.497 36.6799C586.137 36.7922 585.632 36.9214 584.981 37.0674C584.329 37.2246 583.538 37.3201 582.605 37.3538C580.876 37.4211 579.36 37.1909 578.057 36.6631C576.766 36.1353 575.76 35.3154 575.042 34.2036C574.323 33.0918 573.969 31.688 573.98 29.9922V4.92578ZM590.7 37V11.125H597.876V37H590.7ZM594.305 7.78955C593.238 7.78955 592.323 7.43579 591.559 6.72827C590.807 6.00952 590.43 5.15039 590.43 4.15088C590.43 3.1626 590.807 2.3147 591.559 1.60718C592.323 0.888427 593.238 0.529051 594.305 0.529051C595.372 0.529051 596.281 0.888427 597.034 1.60718C597.797 2.3147 598.179 3.1626 598.179 4.15088C598.179 5.15039 597.797 6.00952 597.034 6.72827C596.281 7.43579 595.372 7.78955 594.305 7.78955ZM615.316 37.5054C612.699 37.5054 610.436 36.9495 608.527 35.8376C606.629 34.7146 605.163 33.1536 604.13 31.1545C603.097 29.1443 602.58 26.814 602.58 24.1636C602.58 21.4907 603.097 19.1548 604.13 17.1558C605.163 15.1455 606.629 13.5845 608.527 12.4727C610.436 11.3496 612.699 10.7881 615.316 10.7881C617.932 10.7881 620.19 11.3496 622.088 12.4727C623.997 13.5845 625.468 15.1455 626.501 17.1558C627.534 19.1548 628.051 21.4907 628.051 24.1636C628.051 26.814 627.534 29.1443 626.501 31.1545C625.468 33.1536 623.997 34.7146 622.088 35.8376C620.19 36.9495 617.932 37.5054 615.316 37.5054ZM615.349 31.9463C616.54 31.9463 617.534 31.6094 618.331 30.9355C619.128 30.2505 619.729 29.3184 620.133 28.1392C620.549 26.96 620.757 25.6179 620.757 24.113C620.757 22.6082 620.549 21.2661 620.133 20.0869C619.729 18.9077 619.128 17.9756 618.331 17.2905C617.534 16.6055 616.54 16.2629 615.349 16.2629C614.148 16.2629 613.137 16.6055 612.317 17.2905C611.508 17.9756 610.896 18.9077 610.481 20.0869C610.077 21.2661 609.874 22.6082 609.874 24.113C609.874 25.6179 610.077 26.96 610.481 28.1392C610.896 29.3184 611.508 30.2505 612.317 30.9355C613.137 31.6094 614.148 31.9463 615.349 31.9463ZM639.893 22.041V37H632.717V11.125H639.557V15.6902H639.86C640.433 14.1853 641.393 12.9949 642.74 12.1189C644.088 11.2317 645.722 10.7881 647.643 10.7881C649.439 10.7881 651.006 11.1812 652.342 11.9673C653.679 12.7534 654.718 13.8765 655.459 15.3364C656.2 16.7852 656.571 18.5146 656.571 20.5249V37H649.394V21.8052C649.406 20.2217 649.001 18.9863 648.182 18.0991C647.362 17.2007 646.233 16.7515 644.796 16.7515C643.83 16.7515 642.976 16.9592 642.235 17.3748C641.505 17.7903 640.932 18.3967 640.517 19.1941C640.112 19.9802 639.905 20.9292 639.893 22.041ZM683.755 18.5034L677.186 18.9077C677.073 18.3462 676.832 17.8408 676.461 17.3916C676.091 16.9312 675.602 16.5662 674.996 16.2966C674.401 16.0159 673.687 15.8755 672.856 15.8755C671.745 15.8755 670.807 16.1113 670.043 16.583C669.279 17.0435 668.898 17.6611 668.898 18.436C668.898 19.0537 669.145 19.5759 669.639 20.0027C670.133 20.4294 670.981 20.772 672.182 21.0303L676.866 21.9736C679.381 22.4902 681.257 23.3213 682.492 24.4668C683.727 25.6123 684.345 27.1172 684.345 28.9814C684.345 30.6772 683.845 32.1653 682.846 33.4456C681.858 34.7258 680.499 35.7253 678.769 36.4441C677.051 37.1516 675.069 37.5054 672.823 37.5054C669.397 37.5054 666.668 36.7922 664.636 35.366C662.614 33.9285 661.429 31.9744 661.081 29.5037L668.14 29.1331C668.353 30.1775 668.87 30.9749 669.689 31.5251C670.509 32.0642 671.559 32.3337 672.839 32.3337C674.097 32.3337 675.108 32.0923 675.872 31.6094C676.647 31.1152 677.04 30.4807 677.051 29.7058C677.04 29.0544 676.765 28.521 676.225 28.1055C675.686 27.6787 674.855 27.353 673.732 27.1284L669.251 26.2356C666.724 25.7302 664.843 24.8542 663.608 23.6077C662.384 22.3611 661.772 20.772 661.772 18.8403C661.772 17.1782 662.221 15.7463 663.12 14.5447C664.029 13.343 665.304 12.4165 666.943 11.7651C668.594 11.1138 670.526 10.7881 672.738 10.7881C676.006 10.7881 678.578 11.4788 680.454 12.8601C682.34 14.2415 683.441 16.1226 683.755 18.5034ZM697.438 2.5L696.781 26.6567H690.616L689.942 2.5H697.438ZM693.699 37.438C692.587 37.438 691.632 37.0449 690.835 36.2588C690.038 35.4614 689.644 34.5068 689.656 33.395C689.644 32.2944 690.038 31.3511 690.835 30.5649C691.632 29.7788 692.587 29.3857 693.699 29.3857C694.766 29.3857 695.703 29.7788 696.512 30.5649C697.32 31.3511 697.73 32.2944 697.742 33.395C697.73 34.1362 697.534 34.8157 697.152 35.4333C696.781 36.0398 696.293 36.5283 695.686 36.8989C695.08 37.2583 694.417 37.438 693.699 37.438Z" fill="white"/>
</svg>
